#N canvas 224 42 1028 595 12;
#X obj 178 25 midiin;
#X obj 178 77 print midi;
#X obj 280 24 notein;
#X text 333 76 velocity;
#X text 344 50 channel;
#X text 312 121 note;
#X floatatom 280 121 4 0 127 0 - - - 0;
#X floatatom 299 75 4 0 127 0 - - - 0;
#X floatatom 319 50 0 1 64 0 - - - 0;
#X obj 415 24 ctlin;
#X text 446 124 value;
#X text 459 23 (all controllers \, omni);
#X text 474 50 channel/port;
#X floatatom 415 123 4 0 127 0 - - - 0;
#X floatatom 431 75 4 0 127 0 - - - 0;
#X floatatom 447 49 0 1 64 0 - - - 0;
#X obj 178 51 spigot;
#X obj 229 24 tgl 19 0 empty empty Debug 0 -10 0 12 #feffc6 #000000 #000000 0 1;
#X obj 431 98 s \$0-knob;
#X obj 280 143 s \$0-push;
#X obj 299 97 s \$0-force;
#X obj 415 146 s \$0-rotation;
#X text 462 75 controller;
#X obj 741 15 r \$0-knob;
#X obj 741 39 pack f f;
#X obj 812 15 r \$0-rotation;
#X obj 741 63 route 1 2 3 4 5 6 7 8;
#X obj 835 108 bng 15 250 50 0 empty empty empty 0 -10 0 12 #c6ffc7 #000000 #000000;
#X floatatom 813 88 5 0 0 0 - - - 0;
#X obj 875 108 bng 15 250 50 0 empty empty empty 0 -10 0 12 #c6feff #000000 #000000;
#X floatatom 853 88 5 0 0 0 - - - 0;
#X obj 755 108 bng 15 250 50 0 empty empty empty 0 -10 0 12 #ffe3c6 #000000 #000000;
#X floatatom 733 88 5 0 0 0 - - - 0;
#X obj 795 108 bng 15 250 50 0 empty empty empty 0 -10 0 12 #feffc6 #000000 #000000;
#X floatatom 773 88 5 0 0 0 - - - 0;
#X obj 675 108 bng 15 250 50 0 empty empty empty 0 -10 0 12 #bbbbbb #000000 #000000;
#X floatatom 653 88 5 0 0 0 - - - 0;
#X obj 715 108 bng 15 250 50 0 empty empty empty 0 -10 0 12 #ffc7c6 #000000 #000000;
#X floatatom 693 88 5 0 0 0 - - - 0;
#X obj 915 108 bng 15 250 50 0 empty empty empty 0 -10 0 12 #c7c6ff #000000 #000000;
#X floatatom 893 88 5 0 0 0 - - - 0;
#X obj 955 108 bng 15 250 50 0 empty empty empty 0 -10 0 12 #e3c6ff #000000 #000000;
#X floatatom 933 88 5 0 0 0 - - - 0;
#X obj 895 67 bng 15 250 50 0 empty empty empty 0 -10 0 12 #ff0400 #000000 #000000;
#X obj 588 559 dac~;
#X obj 174 185 r \$0-push;
#X obj 245 185 r \$0-force;
#X obj 174 212 pack f f;
#X obj 174 236 route 36 37 38 39 40 41 42 43;
#X obj 174 444 list prepend 48;
#X obj 199 420 list prepend 51;
#X obj 224 396 list prepend 55;
#X obj 249 372 list prepend 58;
#X obj 274 349 list prepend 60;
#X obj 299 325 list prepend 63;
#X obj 324 301 list prepend 67;
#X obj 349 277 list prepend 70;
#X obj 180 258 bng 15 250 50 0 empty empty empty 0 -10 0 12 #bbbbbb #000000 #000000;
#X obj 205 258 bng 15 250 50 0 empty empty empty 0 -10 0 12 #ffc7c6 #000000 #000000;
#X obj 230 258 bng 15 250 50 0 empty empty empty 0 -10 0 12 #ffe3c6 #000000 #000000;
#X obj 255 258 bng 15 250 50 0 empty empty empty 0 -10 0 12 #feffc6 #000000 #000000;
#X obj 280 258 bng 15 250 50 0 empty empty empty 0 -10 0 12 #c6ffc7 #000000 #000000;
#X obj 305 258 bng 15 250 50 0 empty empty empty 0 -10 0 12 #c6feff #000000 #000000;
#X obj 330 258 bng 15 250 50 0 empty empty empty 0 -10 0 12 #c7c6ff #000000 #000000;
#X obj 355 258 bng 15 250 50 0 empty empty empty 0 -10 0 12 #e3c6ff #000000 #000000;
#X obj 285 444 s \$0-pad1;
#X obj 417 418 r \$0-pad1;
#X obj 311 420 s \$0-pad2;
#X obj 336 396 s \$0-pad3;
#X obj 361 372 s \$0-pad4;
#X obj 386 349 s \$0-pad5;
#X obj 411 325 s \$0-pad6;
#X obj 436 301 s \$0-pad7;
#X obj 893 147 s \$0-knob7;
#X obj 933 126 s \$0-knob8;
#X obj 853 168 s \$0-knob6;
#X obj 813 189 s \$0-knob5;
#X obj 773 126 s \$0-knob4;
#X obj 733 147 s \$0-knob3;
#X obj 653 190 s \$0-knob1;
#X obj 693 169 s \$0-knob2;
#X obj 487 418 r \$0-knob1;
#X obj 564 418 r \$0-pad2;
#X obj 634 418 r \$0-knob2;
#X obj 711 418 r \$0-pad3;
#X obj 781 418 r \$0-knob3;
#X obj 858 418 r \$0-pad4;
#X obj 928 418 r \$0-knob4;
#X obj 588 536 expr~ $v1+$v2+$v3+$v4+$v5+$v6+$v7+$v8;
#X obj 417 468 r \$0-pad5;
#X obj 487 468 r \$0-knob5;
#X obj 564 468 r \$0-pad6;
#X obj 634 468 r \$0-knob6;
#X obj 711 468 r \$0-pad7;
#X obj 781 468 r \$0-knob7;
#X obj 858 468 r \$0-pad8;
#X obj 928 468 r \$0-knob8;
#X obj 461 277 s \$0-pad8;
#X obj 417 443 session06c;
#X obj 564 443 session06c;
#X obj 711 443 session06c;
#X obj 858 443 session06c;
#X obj 417 493 session06c;
#X obj 564 493 session06c;
#X obj 711 493 session06c;
#X obj 858 493 session06c;
#X text 10 7 Enric Guaus;
#X text 11 39 Lutheria Digital;
#X text 11 55 ENTI;
#X text 10 92 Concepts:;
#X text 11 23 09/03/2023;
#X text 37 113 Building instr.;
#X text 36 131 Subpatches;
#X text 10 222 Hardware:;
#X text 36 241 AKAI LPD8;
#X text 11 264 Bugs:;
#X text 21 285 Filter noises;
#X text 21 304 Bad initialization;
#X text 21 323 Bad design?;
#X text 37 197 session06c;
#X text 10 176 Dependencies:;
#X text 36 149 List prepend;
#X connect 0 0 16 0;
#X connect 2 0 6 0;
#X connect 2 1 7 0;
#X connect 2 2 8 0;
#X connect 6 0 19 0;
#X connect 7 0 20 0;
#X connect 9 0 13 0;
#X connect 9 1 14 0;
#X connect 9 2 15 0;
#X connect 13 0 21 0;
#X connect 14 0 18 0;
#X connect 16 0 1 0;
#X connect 17 0 16 1;
#X connect 23 0 24 0;
#X connect 24 0 26 0;
#X connect 25 0 24 1;
#X connect 26 0 36 0;
#X connect 26 0 35 0;
#X connect 26 1 38 0;
#X connect 26 1 37 0;
#X connect 26 2 32 0;
#X connect 26 2 31 0;
#X connect 26 3 34 0;
#X connect 26 3 33 0;
#X connect 26 4 28 0;
#X connect 26 4 27 0;
#X connect 26 5 30 0;
#X connect 26 5 29 0;
#X connect 26 6 40 0;
#X connect 26 6 39 0;
#X connect 26 7 42 0;
#X connect 26 7 41 0;
#X connect 26 8 43 0;
#X connect 28 0 76 0;
#X connect 30 0 75 0;
#X connect 32 0 78 0;
#X connect 34 0 77 0;
#X connect 36 0 79 0;
#X connect 38 0 80 0;
#X connect 40 0 73 0;
#X connect 42 0 74 0;
#X connect 45 0 47 0;
#X connect 46 0 47 1;
#X connect 47 0 48 0;
#X connect 48 0 49 0;
#X connect 48 0 57 0;
#X connect 48 1 50 0;
#X connect 48 1 58 0;
#X connect 48 2 51 0;
#X connect 48 2 59 0;
#X connect 48 3 52 0;
#X connect 48 3 60 0;
#X connect 48 4 53 0;
#X connect 48 4 61 0;
#X connect 48 5 54 0;
#X connect 48 5 62 0;
#X connect 48 6 55 0;
#X connect 48 6 63 0;
#X connect 48 7 56 0;
#X connect 48 7 64 0;
#X connect 49 0 65 0;
#X connect 50 0 67 0;
#X connect 51 0 68 0;
#X connect 52 0 69 0;
#X connect 53 0 70 0;
#X connect 54 0 71 0;
#X connect 55 0 72 0;
#X connect 56 0 97 0;
#X connect 66 0 98 0;
#X connect 81 0 98 1;
#X connect 82 0 99 0;
#X connect 83 0 99 1;
#X connect 84 0 100 0;
#X connect 85 0 100 1;
#X connect 86 0 101 0;
#X connect 87 0 101 1;
#X connect 88 0 44 0;
#X connect 88 0 44 1;
#X connect 89 0 102 0;
#X connect 90 0 102 1;
#X connect 91 0 103 0;
#X connect 92 0 103 1;
#X connect 93 0 104 0;
#X connect 94 0 104 1;
#X connect 95 0 105 0;
#X connect 96 0 105 1;
#X connect 98 0 88 0;
#X connect 99 0 88 1;
#X connect 100 0 88 2;
#X connect 101 0 88 3;
#X connect 102 0 88 4;
#X connect 103 0 88 5;
#X connect 104 0 88 6;
#X connect 105 0 88 7;
