#N canvas 6 521 1059 320 12;
#X obj 212 74 vsl 35 128 0 1 0 0 empty empty empty 0 -9 0 10 #feffc6 #000000 #000000 0 1;
#X obj 265 74 vsl 35 128 0 1 0 0 empty empty empty 0 -9 0 10 #feffc6 #000000 #000000 0 1;
#X obj 318 74 vsl 35 128 0 1 0 0 empty empty empty 0 -9 0 10 #feffc6 #000000 #000000 0 1;
#X obj 371 74 vsl 35 128 0 1 0 0 empty empty empty 0 -9 0 10 #feffc6 #000000 #000000 0 1;
#X obj 487 280 ctlout;
#X msg 526 255 1;
#X obj 506 204 r \$0-controller;
#X obj 526 229 loadbang;
#X obj 620 280 ctlout;
#X obj 639 204 r \$0-controller;
#X obj 659 229 loadbang;
#X obj 753 280 ctlout;
#X obj 772 204 r \$0-controller;
#X obj 792 229 loadbang;
#X obj 886 280 ctlout;
#X obj 905 204 r \$0-controller;
#X obj 925 229 loadbang;
#X msg 659 255 2;
#X msg 792 255 3;
#X msg 925 255 4;
#X obj 212 277 s \$0-midi1;
#X obj 371 209 s \$0-midi4;
#X obj 318 232 s \$0-midi3;
#X obj 265 254 s \$0-midi2;
#X msg 487 61 1;
#X text 519 65 PitchBend;
#X obj 487 85 s \$0-controller;
#X obj 487 180 * 127;
#X obj 620 179 * 127;
#X obj 753 180 * 127;
#X obj 886 180 * 127;
#X obj 487 155 moses;
#X obj 487 37 r \$0-midi_act;
#X obj 487 110 r \$0-midi1;
#X obj 519 132 r \$0-midi_act;
#X obj 620 155 moses;
#X obj 652 132 r \$0-midi_act;
#X obj 753 155 moses;
#X obj 785 132 r \$0-midi_act;
#X obj 886 155 moses;
#X obj 918 132 r \$0-midi_act;
#X obj 620 110 r \$0-midi2;
#X obj 753 110 r \$0-midi3;
#X obj 886 110 r \$0-midi4;
#X obj 213 21 tgl 15 0 empty empty MIDI_out 17 7 0 10 #fcfcc4 #000000 #000000 0 1;
#X obj 213 42 s \$0-midi_act;
#X text 10 7 Enric Guaus;
#X text 11 39 Lutheria Digital;
#X text 11 55 ENTI;
#X text 10 92 Concepts:;
#X text 11 23 09/03/2023;
#X text 13 152 Hardware:;
#X text 37 113 MIDI(out);
#X text 36 131 PitchBend;
#X text 39 171 Generic;
#X connect 0 0 20 0;
#X connect 1 0 23 0;
#X connect 2 0 22 0;
#X connect 3 0 21 0;
#X connect 5 0 4 2;
#X connect 6 0 4 1;
#X connect 7 0 5 0;
#X connect 9 0 8 1;
#X connect 10 0 17 0;
#X connect 12 0 11 1;
#X connect 13 0 18 0;
#X connect 15 0 14 1;
#X connect 16 0 19 0;
#X connect 17 0 8 2;
#X connect 18 0 11 2;
#X connect 19 0 14 2;
#X connect 24 0 26 0;
#X connect 27 0 4 0;
#X connect 28 0 8 0;
#X connect 29 0 11 0;
#X connect 30 0 14 0;
#X connect 31 0 27 0;
#X connect 32 0 24 0;
#X connect 33 0 31 0;
#X connect 34 0 31 1;
#X connect 35 0 28 0;
#X connect 36 0 35 1;
#X connect 37 0 29 0;
#X connect 38 0 37 1;
#X connect 39 0 30 0;
#X connect 40 0 39 1;
#X connect 41 0 35 0;
#X connect 42 0 37 0;
#X connect 43 0 39 0;
#X connect 44 0 45 0;
