#N canvas 597 404 516 401 12;
#X obj 159 12 inlet;
#X obj 159 59 mtof;
#X obj 241 108 inlet;
#X obj 159 362 outlet~;
#X obj 159 340 *~;
#X obj 159 36 unpack f f;
#X obj 398 275 / 127;
#X obj 248 179 loadbang;
#X obj 398 321 line 5000;
#X msg 398 298 \$1 5000;
#X obj 159 82 phasor~;
#X obj 241 271 line~;
#X obj 241 247 pack f 50;
#X floatatom 241 225 8 0 0 0 - - - 0;
#X obj 241 131 / 127;
#X obj 241 154 * 5000;
#X floatatom 324 248 5 0 8 0 - - - 0;
#X obj 324 271 sig~;
#X obj 159 314 bob~, f 24;
#X msg 324 224 3;
#X msg 248 202 1;
#X obj 324 200 loadbang;
#X obj 226 60 s \$0-inlet1b;
#X obj 398 251 r \$0-inlet1b;
#X text 10 7 Enric Guaus;
#X text 11 39 Lutheria Digital;
#X text 11 55 ENTI;
#X text 10 92 Concepts:;
#X text 11 23 09/03/2023;
#X text 10 135 Subpatch for:;
#X text 37 114 bob~;
#X text 36 155 session06b;
#X connect 0 0 5 0;
#X connect 1 0 10 0;
#X connect 2 0 14 0;
#X connect 4 0 3 0;
#X connect 5 0 1 0;
#X connect 5 1 22 0;
#X connect 6 0 9 0;
#X connect 7 0 20 0;
#X connect 8 0 4 1;
#X connect 9 0 8 0;
#X connect 10 0 18 0;
#X connect 11 0 18 1;
#X connect 12 0 11 0;
#X connect 13 0 12 0;
#X connect 14 0 15 0;
#X connect 15 0 13 0;
#X connect 16 0 17 0;
#X connect 17 0 18 2;
#X connect 18 0 4 0;
#X connect 19 0 16 0;
#X connect 20 0 13 0;
#X connect 21 0 19 0;
#X connect 23 0 6 0;
