#N canvas 26 513 811 343 12;
#X obj 181 29 midiin;
#X obj 181 81 print midi;
#X obj 304 29 notein;
#X text 357 81 velocity;
#X text 368 55 channel;
#X text 336 126 note;
#X floatatom 304 126 4 0 127 0 - - - 0;
#X floatatom 323 80 4 0 127 0 - - - 0;
#X floatatom 343 55 0 1 64 0 - - - 0;
#X obj 452 28 ctlin;
#X text 483 128 value;
#X text 496 27 (all controllers \, omni);
#X text 511 54 channel/port;
#X floatatom 452 127 4 0 127 0 - - - 0;
#X floatatom 468 79 4 0 127 0 - - - 0;
#X floatatom 484 53 0 1 64 0 - - - 0;
#X obj 181 55 spigot;
#X obj 232 28 tgl 19 0 empty empty Debug 0 -10 0 12 #feffc6 #000000 #000000 0 1;
#X obj 468 102 s \$0-knob;
#X obj 304 148 s \$0-push;
#X obj 323 102 s \$0-force;
#X obj 452 150 s \$0-rotation;
#X text 499 79 controller;
#X obj 542 194 r \$0-knob;
#X obj 542 218 pack f f;
#X obj 613 194 r \$0-rotation;
#X obj 542 242 route 1 2 3 4 5 6 7 8;
#X obj 636 287 bng 15 250 50 0 empty empty empty 0 -10 0 12 #c6ffc7 #000000 #000000;
#X floatatom 614 267 5 0 0 0 - - - 0;
#X obj 676 287 bng 15 250 50 0 empty empty empty 0 -10 0 12 #c6feff #000000 #000000;
#X floatatom 654 267 5 0 0 0 - - - 0;
#X obj 556 287 bng 15 250 50 0 empty empty empty 0 -10 0 12 #ffe3c6 #000000 #000000;
#X floatatom 534 267 5 0 0 0 - - - 0;
#X obj 596 287 bng 15 250 50 0 empty empty empty 0 -10 0 12 #feffc6 #000000 #000000;
#X floatatom 574 267 5 0 0 0 - - - 0;
#X obj 476 287 bng 15 250 50 0 empty empty empty 0 -10 0 12 #bbbbbb #000000 #000000;
#X floatatom 454 267 5 0 0 0 - - - 0;
#X obj 516 287 bng 15 250 50 0 empty empty empty 0 -10 0 12 #ffc7c6 #000000 #000000;
#X floatatom 494 267 5 0 0 0 - - - 0;
#X obj 716 287 bng 15 250 50 0 empty empty empty 0 -10 0 12 #c7c6ff #000000 #000000;
#X floatatom 694 267 5 0 0 0 - - - 0;
#X obj 756 287 bng 15 250 50 0 empty empty empty 0 -10 0 12 #e3c6ff #000000 #000000;
#X floatatom 734 267 5 0 0 0 - - - 0;
#X obj 696 246 bng 15 250 50 0 empty empty empty 0 -10 0 12 #ff0400 #000000 #000000;
#X obj 188 192 r \$0-push;
#X obj 259 192 r \$0-force;
#X obj 188 219 pack f f;
#X text 10 7 Enric Guaus;
#X text 11 39 Lutheria Digital;
#X text 11 55 ENTI;
#X text 10 92 Concepts:;
#X text 11 23 09/03/2023;
#X text 36 131 notein vs ctlin;
#X text 35 149 route;
#X text 37 113 MIDI(in);
#X obj 310 287 bng 15 250 50 0 empty empty empty 0 -10 0 12 #c6ffc7 #000000 #000000;
#X floatatom 288 267 5 0 0 0 - - - 0;
#X obj 350 287 bng 15 250 50 0 empty empty empty 0 -10 0 12 #c6feff #000000 #000000;
#X floatatom 328 267 5 0 0 0 - - - 0;
#X obj 230 287 bng 15 250 50 0 empty empty empty 0 -10 0 12 #ffe3c6 #000000 #000000;
#X floatatom 208 267 5 0 0 0 - - - 0;
#X obj 270 287 bng 15 250 50 0 empty empty empty 0 -10 0 12 #feffc6 #000000 #000000;
#X floatatom 248 267 5 0 0 0 - - - 0;
#X obj 150 287 bng 15 250 50 0 empty empty empty 0 -10 0 12 #bbbbbb #000000 #000000;
#X floatatom 128 267 5 0 0 0 - - - 0;
#X obj 190 287 bng 15 250 50 0 empty empty empty 0 -10 0 12 #ffc7c6 #000000 #000000;
#X floatatom 168 267 5 0 0 0 - - - 0;
#X obj 390 287 bng 15 250 50 0 empty empty empty 0 -10 0 12 #c7c6ff #000000 #000000;
#X floatatom 368 267 5 0 0 0 - - - 0;
#X obj 430 287 bng 15 250 50 0 empty empty empty 0 -10 0 12 #e3c6ff #000000 #000000;
#X floatatom 408 267 5 0 0 0 - - - 0;
#X obj 398 246 bng 15 250 50 0 empty empty empty 0 -10 0 12 #ff0400 #000000 #000000;
#X obj 188 242 route 36 37 38 39 40 41 42 43;
#X text 13 173 Hardware:;
#X text 39 192 AKAI LPD8;
#X connect 0 0 16 0;
#X connect 2 0 6 0;
#X connect 2 1 7 0;
#X connect 2 2 8 0;
#X connect 6 0 19 0;
#X connect 7 0 20 0;
#X connect 9 0 13 0;
#X connect 9 1 14 0;
#X connect 9 2 15 0;
#X connect 13 0 21 0;
#X connect 14 0 18 0;
#X connect 16 0 1 0;
#X connect 17 0 16 1;
#X connect 23 0 24 0;
#X connect 24 0 26 0;
#X connect 25 0 24 1;
#X connect 26 0 36 0;
#X connect 26 0 35 0;
#X connect 26 1 38 0;
#X connect 26 1 37 0;
#X connect 26 2 32 0;
#X connect 26 2 31 0;
#X connect 26 3 34 0;
#X connect 26 3 33 0;
#X connect 26 4 28 0;
#X connect 26 4 27 0;
#X connect 26 5 30 0;
#X connect 26 5 29 0;
#X connect 26 6 40 0;
#X connect 26 6 39 0;
#X connect 26 7 42 0;
#X connect 26 7 41 0;
#X connect 26 8 43 0;
#X connect 44 0 46 0;
#X connect 45 0 46 1;
#X connect 46 0 72 0;
#X connect 72 0 64 0;
#X connect 72 0 63 0;
#X connect 72 1 66 0;
#X connect 72 1 65 0;
#X connect 72 2 60 0;
#X connect 72 2 59 0;
#X connect 72 3 62 0;
#X connect 72 3 61 0;
#X connect 72 4 56 0;
#X connect 72 4 55 0;
#X connect 72 5 58 0;
#X connect 72 5 57 0;
#X connect 72 6 68 0;
#X connect 72 6 67 0;
#X connect 72 7 70 0;
#X connect 72 7 69 0;
#X connect 72 8 71 0;
