#N canvas 32 99 591 459 12;
#X obj 153 242 dac~;
#X obj 153 27 noise~;
#X obj 153 196 *~;
#X floatatom 171 111 5 0 0 0 - - -;
#X obj 171 57 loadbang;
#X obj 171 138 / 100;
#X floatatom 171 166 5 0 0 0 - - -;
#X text 216 85 0..100;
#X text 214 112 only +-1 increment;
#X text 215 140 allows 0.01 precision;
#X text 13 35 Edit mode;
#X text 10 10 Concepts:;
#X text 13 80 Objects;
#X text 14 98 Messages;
#X text 15 115 Numbers;
#X text 14 145 audio bus;
#X text 14 160 control bus;
#X text 16 188 simple maths;
#X text 12 50 inlets & outlets;
#X msg 171 83 10;
#X connect 1 0 2 0;
#X connect 2 0 0 1;
#X connect 2 0 0 0;
#X connect 3 0 5 0;
#X connect 4 0 19 0;
#X connect 5 0 6 0;
#X connect 6 0 2 1;
#X connect 19 0 3 0;
