#N canvas 740 84 591 459 12;
#X obj 198 266 dac~;
#X obj 198 51 noise~;
#X obj 198 220 *~;
#X floatatom 216 135 5 0 0 0 - - - 0;
#X obj 216 81 loadbang;
#X obj 216 162 / 100;
#X floatatom 216 190 5 0 0 0 - - - 0;
#X text 261 109 0..100;
#X text 259 136 only +-1 increment;
#X text 260 164 allows 0.01 precision;
#X text 32 148 Edit mode;
#X text 11 98 Concepts:;
#X text 32 190 Objects;
#X text 33 208 Messages;
#X text 34 225 Numbers;
#X text 33 250 audio bus;
#X text 33 265 control bus;
#X text 33 291 simple maths;
#X text 31 163 inlets & outlets;
#X msg 216 107 10;
#X text 10 7 Enric Guaus;
#X text 11 23 23/02/2023;
#X text 11 39 Lutheria Digital;
#X text 11 55 ENTI;
#X text 33 117 DSP;
#X text 32 133 Preferences;
#X connect 1 0 2 0;
#X connect 2 0 0 1;
#X connect 2 0 0 0;
#X connect 3 0 5 0;
#X connect 4 0 19 0;
#X connect 5 0 6 0;
#X connect 6 0 2 1;
#X connect 19 0 3 0;
