#N canvas 521 257 500 441 12;
#X obj 175 242 dac~;
#X obj 175 27 noise~;
#X obj 175 196 *~;
#X obj 193 57 loadbang;
#X floatatom 192 165 5 0 0 0 - - - 0;
#X text 238 85 0..100;
#X msg 193 83 10;
#X obj 193 138 / 127;
#X obj 196 113 hsl 128 15 0 127 0 0 empty empty empty -2 -8 0 10 #fcfcfc #000000 #000000 0 1;
#X obj 236 231 vu 15 120 empty empty -1 -8 0 10 #404040 #000000 1 0;
#X obj 235 201 expr 20*log($f1/0.707);
#X text 242 181 Cal passar de 0..1 a dBs;
#X text 10 7 Enric Guaus;
#X text 11 23 23/02/2023;
#X text 11 39 Lutheria Digital;
#X text 11 55 ENTI;
#X text 10 92 Concepts:;
#X text 335 111;
#X text 36 133 Adding a vumeter;
#X text 37 115 Adding a slider;
#X connect 1 0 2 0;
#X connect 2 0 0 1;
#X connect 2 0 0 0;
#X connect 3 0 6 0;
#X connect 4 0 2 1;
#X connect 4 0 10 0;
#X connect 6 0 8 0;
#X connect 7 0 4 0;
#X connect 8 0 7 0;
#X connect 10 0 9 0;
