#N canvas 237 125 714 552 12;
#X text 20 33 Enric Guaus;
#X text 20 53 05/03/2026;
#X text 20 73 Lutheria Digital;
#X text 20 92 ENTI;
#X text 19 130 Concepts:;
#X obj 440 449 output~;
#X floatatom 236 41 3 0 0 0 - - - 0;
#X obj 236 17 keyname;
#X symbolatom 282 41 10 0 0 0 - - - 0;
#X obj 169 139 bng 15 250 50 0 empty empty empty 17 7 0 10 #ffc7c6 #000000 #000000;
#X obj 169 114 sel a s d f g h j k;
#X obj 185 139 bng 15 250 50 0 empty empty empty 17 7 0 10 #ffe3c6 #000000 #000000;
#X obj 201 139 bng 15 250 50 0 empty empty empty 17 7 0 10 #feffc6 #000000 #000000;
#X obj 217 139 bng 15 250 50 0 empty empty empty 17 7 0 10 #c6ffc7 #000000 #000000;
#X obj 234 139 bng 15 250 50 0 empty empty empty 17 7 0 10 #c6feff #000000 #000000;
#X obj 250 139 bng 15 250 50 0 empty empty empty 17 7 0 10 #c7c6ff #000000 #000000;
#X obj 266 139 bng 15 250 50 0 empty empty empty 17 7 0 10 #e3c6ff #000000 #000000;
#X obj 282 139 bng 15 250 50 0 empty empty empty 17 7 0 10 #dfdfdf #000000 #000000;
#X msg 169 159 0;
#X msg 198 159 2;
#X msg 228 159 4;
#X msg 257 159 5;
#X msg 287 159 7;
#X msg 316 159 9;
#X msg 345 159 11;
#X msg 375 159 12;
#X obj 169 184 s \$0-degree;
#X obj 282 64 s \$0-keyname;
#X obj 169 89 r \$0-keyname;
#X obj 169 64 s \$0-keypressed;
#X floatatom 170 284 5 0 0 0 - - - 0;
#X obj 170 260 expr $f2 * pow(2 \, $f1/12);
#X obj 440 425 *~;
#X obj 170 234 r \$0-degree;
#X obj 342 212 loadbang;
#X obj 458 401 vline~;
#X obj 458 354 sel 1 0;
#X msg 458 378 0.9 10 0;
#X obj 458 330 r \$0-keypressed;
#X floatatom 459 112 8 0 0 0 - - - 0;
#X floatatom 475 228 5 0 0 0 - - - 0;
#X obj 460 90 hsl 169 18 0.5 200 0 0 empty empty empty -2 -10 0 12 #feffc6 #000000 #000000 0 1;
#X obj 478 206 hsl 169 18 0.5 100 0 0 empty empty empty -2 -10 0 12 #feffc6 #000000 #000000 0 1;
#X msg 342 236 110;
#X obj 459 43 loadbang;
#X obj 475 158 loadbang;
#X obj 170 307 s \$0-freq;
#X obj 440 19 r \$0-freq;
#X obj 459 135 osc~;
#X obj 458 254 *~;
#X obj 440 305 osc~;
#X msg 459 67 1;
#X msg 475 183 1;
#X obj 440 279 +~;
#X msg 526 378 0 100 0;
#X text 519 115 ratio/freq;
#X text 515 231 depth/index;
#X text 39 152 FM synthesis;
#X connect 6 0 29 0;
#X connect 7 0 6 0;
#X connect 7 1 8 0;
#X connect 8 0 27 0;
#X connect 9 0 18 0;
#X connect 10 0 9 0;
#X connect 10 1 11 0;
#X connect 10 2 12 0;
#X connect 10 3 13 0;
#X connect 10 4 14 0;
#X connect 10 5 15 0;
#X connect 10 6 16 0;
#X connect 10 7 17 0;
#X connect 11 0 19 0;
#X connect 12 0 20 0;
#X connect 13 0 21 0;
#X connect 14 0 22 0;
#X connect 15 0 23 0;
#X connect 16 0 24 0;
#X connect 17 0 25 0;
#X connect 18 0 26 0;
#X connect 19 0 26 0;
#X connect 20 0 26 0;
#X connect 21 0 26 0;
#X connect 22 0 26 0;
#X connect 23 0 26 0;
#X connect 24 0 26 0;
#X connect 25 0 26 0;
#X connect 28 0 10 0;
#X connect 30 0 46 0;
#X connect 31 0 30 0;
#X connect 32 0 5 0;
#X connect 33 0 31 0;
#X connect 34 0 43 0;
#X connect 35 0 32 1;
#X connect 36 0 37 0;
#X connect 36 1 54 0;
#X connect 37 0 35 0;
#X connect 38 0 36 0;
#X connect 39 0 48 0;
#X connect 40 0 49 1;
#X connect 41 0 39 0;
#X connect 42 0 40 0;
#X connect 43 0 31 1;
#X connect 44 0 51 0;
#X connect 45 0 52 0;
#X connect 47 0 53 0;
#X connect 48 0 49 0;
#X connect 49 0 53 1;
#X connect 50 0 32 0;
#X connect 51 0 41 0;
#X connect 52 0 42 0;
#X connect 53 0 50 0;
#X connect 54 0 35 0;
