#N canvas 352 140 1046 617 12;
#X obj 183 28 loadbang;
#X obj 183 170 * 1;
#X obj 352 171 * 1.5;
#X msg 183 100 110;
#X obj 519 170 * 1.92;
#X obj 685 169 * 2.5;
#X obj 856 168 * 3.51;
#X obj 183 194 osc~;
#X obj 352 195 osc~;
#X obj 519 194 osc~;
#X obj 685 193 osc~;
#X obj 856 192 osc~;
#X obj 201 264 vline~;
#X obj 183 310 *~;
#X msg 201 241 0.9 10 0 \, 0 8000 10;
#X obj 370 265 vline~;
#X obj 352 311 *~;
#X obj 537 266 vline~;
#X obj 519 314 *~;
#X obj 704 266 vline~;
#X obj 686 314 *~;
#X obj 874 266 vline~;
#X obj 856 316 *~;
#X msg 370 242 0.9 10 0 \, 0 6500 10;
#X msg 537 242 0.9 10 0 \, 0 4700 10;
#X msg 704 241 0.9 10 0 \, 0 2400 10;
#X msg 874 241 0.9 10 0 \, 0 1300 10;
#X obj 802 405 +~;
#X obj 704 290 /~ 5;
#X obj 874 291 /~ 5;
#X obj 537 290 /~ 5;
#X obj 370 288 /~ 5;
#X obj 201 287 /~ 5;
#X obj 350 99 s \$0-noteOn;
#X obj 183 76 bng 19 250 50 0 empty empty empty 0 -10 0 12 #feffc6 #000000 #000000;
#X obj 350 75 bng 19 250 50 0 empty empty empty 0 -10 0 12 #feffc6 #000000 #000000;
#X obj 201 218 r \$0-noteOn;
#X obj 370 219 r \$0-noteOn;
#X obj 537 218 r \$0-noteOn;
#X obj 704 217 r \$0-noteOn;
#X obj 874 217 r \$0-noteOn;
#X obj 183 124 s \$0-pitch;
#X obj 856 144 r \$0-pitch;
#X obj 685 145 r \$0-pitch;
#X obj 519 145 r \$0-pitch;
#X obj 352 148 r \$0-pitch;
#X obj 183 147 r \$0-pitch;
#X obj 820 381 +~;
#X obj 838 357 +~;
#X obj 784 429 +~;
#X obj 218 76 bng 19 250 50 0 empty empty empty 0 -10 0 12 #feffc6 #000000 #000000;
#X obj 253 76 bng 19 250 50 0 empty empty empty 0 -10 0 12 #feffc6 #000000 #000000;
#X msg 218 100 330;
#X msg 253 100 660;
#X text 187 55 Select pitch;
#X text 372 80 Push to start note;
#X text 20 33 Enric Guaus;
#X text 20 53 05/03/2026;
#X text 20 73 Lutheria Digital;
#X text 20 92 ENTI;
#X text 19 130 Concepts:;
#X text 39 152 Additive synthesis;
#X text 39 205 ADSR;
#X text 39 187 Partials;
#X text 38 170 Pitch;
#X text 39 221 Decay times;
#X obj 784 455 output~;
#X text 20 257 TODO:;
#X text 36 274 Automatize pitch;
#X text 35 292 Automatize decays;
#X connect 0 0 34 0;
#X connect 1 0 7 0;
#X connect 2 0 8 0;
#X connect 3 0 41 0;
#X connect 4 0 9 0;
#X connect 5 0 10 0;
#X connect 6 0 11 0;
#X connect 7 0 13 0;
#X connect 8 0 16 0;
#X connect 9 0 18 0;
#X connect 10 0 20 0;
#X connect 11 0 22 0;
#X connect 12 0 32 0;
#X connect 13 0 49 0;
#X connect 14 0 12 0;
#X connect 15 0 31 0;
#X connect 16 0 27 0;
#X connect 17 0 30 0;
#X connect 18 0 47 0;
#X connect 19 0 28 0;
#X connect 20 0 48 0;
#X connect 21 0 29 0;
#X connect 22 0 48 1;
#X connect 23 0 15 0;
#X connect 24 0 17 0;
#X connect 25 0 19 0;
#X connect 26 0 21 0;
#X connect 27 0 49 1;
#X connect 28 0 20 1;
#X connect 29 0 22 1;
#X connect 30 0 18 1;
#X connect 31 0 16 1;
#X connect 32 0 13 1;
#X connect 34 0 3 0;
#X connect 35 0 33 0;
#X connect 36 0 14 0;
#X connect 37 0 23 0;
#X connect 38 0 24 0;
#X connect 39 0 25 0;
#X connect 40 0 26 0;
#X connect 42 0 6 0;
#X connect 43 0 5 0;
#X connect 44 0 4 0;
#X connect 45 0 2 0;
#X connect 46 0 1 0;
#X connect 47 0 27 1;
#X connect 48 0 47 1;
#X connect 49 0 66 0;
#X connect 49 0 66 1;
#X connect 50 0 52 0;
#X connect 51 0 53 0;
#X connect 52 0 41 0;
#X connect 53 0 41 0;
