#N canvas 237 125 727 513 12;
#X text 20 33 Enric Guaus;
#X text 20 53 05/03/2026;
#X text 20 73 Lutheria Digital;
#X text 20 92 ENTI;
#X text 19 130 Concepts:;
#X text 38 170 Pitch;
#X obj 499 427 output~;
#X floatatom 291 41 3 0 0 0 - - - 0;
#X obj 291 17 keyname;
#X symbolatom 337 41 10 0 0 0 - - - 0;
#X obj 224 139 bng 15 250 50 0 empty empty empty 17 7 0 10 #ffc7c6 #000000 #000000;
#X obj 224 114 sel a s d f g h j k;
#X obj 240 139 bng 15 250 50 0 empty empty empty 17 7 0 10 #ffe3c6 #000000 #000000;
#X obj 256 139 bng 15 250 50 0 empty empty empty 17 7 0 10 #feffc6 #000000 #000000;
#X obj 272 139 bng 15 250 50 0 empty empty empty 17 7 0 10 #c6ffc7 #000000 #000000;
#X obj 289 139 bng 15 250 50 0 empty empty empty 17 7 0 10 #c6feff #000000 #000000;
#X obj 305 139 bng 15 250 50 0 empty empty empty 17 7 0 10 #c7c6ff #000000 #000000;
#X obj 321 139 bng 15 250 50 0 empty empty empty 17 7 0 10 #e3c6ff #000000 #000000;
#X obj 337 139 bng 15 250 50 0 empty empty empty 17 7 0 10 #dfdfdf #000000 #000000;
#X msg 224 159 0;
#X msg 253 159 2;
#X msg 283 159 4;
#X msg 312 159 5;
#X msg 342 159 7;
#X msg 371 159 9;
#X msg 400 159 11;
#X msg 430 159 12;
#X obj 224 184 s \$0-degree;
#X obj 337 64 s \$0-keyname;
#X obj 224 89 r \$0-keyname;
#X obj 224 64 s \$0-keypressed;
#X floatatom 225 284 5 0 0 0 - - - 0;
#X obj 225 260 expr $f2 * pow(2 \, $f1/12);
#X obj 499 42 phasor~;
#X obj 499 403 *~;
#X obj 225 234 r \$0-degree;
#X obj 397 212 loadbang;
#X obj 517 379 vline~;
#X obj 517 332 sel 1 0;
#X msg 517 356 0.9 10 0;
#X obj 517 308 r \$0-keypressed;
#X msg 585 356 0 500 0;
#X text 38 187 Sustain and Release;
#X floatatom 515 140 8 0 0 0 - - - 0;
#X floatatom 531 256 5 0 0 0 - - - 0;
#X text 575 255 Q;
#X obj 518 118 hsl 169 18 200 2000 0 0 empty empty empty -2 -10 0 12 #feffc6 #000000 #000000 0 1;
#X obj 534 234 hsl 169 18 1 20 0 0 empty empty empty -2 -10 0 12 #feffc6 #000000 #000000 0 1;
#X text 575 143 f0;
#X msg 397 236 110;
#X obj 499 280 vcf~, f 5;
#X text 37 253 vcf~;
#X text 36 236 sig~;
#X text 36 220 phasor~;
#X obj 514 72 loadbang;
#X msg 514 96 200;
#X obj 515 163 sig~;
#X obj 531 186 loadbang;
#X msg 531 211 1;
#X obj 225 307 s \$0-freq;
#X obj 499 18 r \$0-freq;
#X text 39 152 Subtractive synthesis;
#X connect 7 0 30 0;
#X connect 8 0 7 0;
#X connect 8 1 9 0;
#X connect 9 0 28 0;
#X connect 10 0 19 0;
#X connect 11 0 10 0;
#X connect 11 1 12 0;
#X connect 11 2 13 0;
#X connect 11 3 14 0;
#X connect 11 4 15 0;
#X connect 11 5 16 0;
#X connect 11 6 17 0;
#X connect 11 7 18 0;
#X connect 12 0 20 0;
#X connect 13 0 21 0;
#X connect 14 0 22 0;
#X connect 15 0 23 0;
#X connect 16 0 24 0;
#X connect 17 0 25 0;
#X connect 18 0 26 0;
#X connect 19 0 27 0;
#X connect 20 0 27 0;
#X connect 21 0 27 0;
#X connect 22 0 27 0;
#X connect 23 0 27 0;
#X connect 24 0 27 0;
#X connect 25 0 27 0;
#X connect 26 0 27 0;
#X connect 29 0 11 0;
#X connect 31 0 59 0;
#X connect 32 0 31 0;
#X connect 33 0 50 0;
#X connect 34 0 6 0;
#X connect 35 0 32 0;
#X connect 36 0 49 0;
#X connect 37 0 34 1;
#X connect 38 0 39 0;
#X connect 38 1 41 0;
#X connect 39 0 37 0;
#X connect 40 0 38 0;
#X connect 41 0 37 0;
#X connect 43 0 56 0;
#X connect 44 0 50 2;
#X connect 46 0 43 0;
#X connect 47 0 44 0;
#X connect 49 0 32 1;
#X connect 50 0 34 0;
#X connect 54 0 55 0;
#X connect 55 0 46 0;
#X connect 56 0 50 1;
#X connect 57 0 58 0;
#X connect 58 0 47 0;
#X connect 60 0 33 0;
