#N canvas 295 25 775 433 12;
#X msg 384 205 disconnect;
#X floatatom 375 358 0 0 0 0 - - - 0;
#X obj 405 357 print backward;
#X obj 375 12 tgl 15 0 empty empty OSC_Connection 17 7 0 10 #fcfcc4 #000000 #000000 0 1;
#X obj 375 58 bng 15 250 50 0 empty empty empty 17 7 0 10 #fcfcfc #000000 #000000;
#X obj 435 58 bng 15 250 50 0 empty empty empty 17 7 0 10 #fcfcfc #000000 #000000;
#X obj 375 33 moses 0.5;
#X obj 375 330 netsend -u -b;
#X obj 394 305 list trim;
#X obj 394 282 list prepend send;
#X obj 559 152 netreceive -u -b;
#X obj 559 176 oscparse;
#X obj 559 275 vsl 35 128 0 1 0 0 empty empty empty 0 -9 0 10 #c4fcc4 #000000 #000000 0 1;
#X obj 559 249 line;
#X msg 559 225 \$1 200;
#X obj 612 275 vsl 35 128 0 1 0 0 empty empty empty 0 -9 0 10 #c4fcc4 #000000 #000000 0 1;
#X obj 612 249 line;
#X msg 612 225 \$1 200;
#X obj 665 275 vsl 35 128 0 1 0 0 empty empty empty 0 -9 0 10 #c4fcc4 #000000 #000000 0 1;
#X obj 665 249 line;
#X msg 665 225 \$1 200;
#X obj 718 275 vsl 35 128 0 1 0 0 empty empty empty 0 -9 0 10 #c4fcc4 #000000 #000000 0 1;
#X obj 718 249 line;
#X msg 718 225 \$1 200;
#X msg 567 124 listen 0;
#X obj 375 384 tgl 15 0 empty empty empty 17 7 0 10 #c4fcc4 #000000 #000000 0 1;
#X obj 188 80 vsl 35 128 0 1 0 0 empty empty empty 0 -9 0 10 #feffc6 #000000 #000000 0 1;
#X obj 229 80 vsl 35 128 0 1 0 0 empty empty empty 0 -9 0 10 #feffc6 #000000 #000000 0 1;
#X obj 270 80 vsl 35 128 0 1 0 0 empty empty empty 0 -9 0 10 #feffc6 #000000 #000000 0 1;
#X obj 311 80 vsl 35 128 0 1 0 0 empty empty empty 0 -9 0 10 #feffc6 #000000 #000000 0 1;
#X obj 188 241 pack \$1 \$2 \$3 \$4;
#X obj 188 265 s \$0-faders;
#X obj 394 234 r \$0-faders;
#X obj 375 131 r \$0-connect;
#X obj 402 81 s \$0-connect;
#X obj 375 105 s \$0-disconnect;
#X obj 384 180 r \$0-disconnect;
#X obj 394 258 oscformat /myMessage;
#X obj 559 50 r \$0-connect;
#X obj 567 98 r \$0-disconnect;
#X msg 559 74 listen 6448;
#X obj 559 200 unpack s f f f f;
#X obj 189 10 tgl 15 0 empty empty Metronome 17 7 0 10 #fcfcc4 #000000 #000000 0 1;
#X obj 172 217 r \$0-metronome;
#X obj 189 30 metro 50;
#X obj 273 265 print faders;
#X text 10 7 Enric Guaus;
#X text 11 39 Lutheria Digital;
#X text 11 55 ENTI;
#X text 10 92 Concepts:;
#X text 11 23 07/03/2023;
#X text 37 113 OSC;
#X text 36 130 Send and Receive;
#X msg 375 154 connect localhost 6448;
#X text 468 135 127.0.0.1;
#X obj 189 54 s \$0-metronome;
#X connect 0 0 7 0;
#X connect 1 0 25 0;
#X connect 3 0 6 0;
#X connect 4 0 35 0;
#X connect 5 0 34 0;
#X connect 6 0 4 0;
#X connect 6 1 5 0;
#X connect 7 0 1 0;
#X connect 7 1 2 0;
#X connect 8 0 7 0;
#X connect 9 0 8 0;
#X connect 10 0 11 0;
#X connect 11 0 41 0;
#X connect 13 0 12 0;
#X connect 14 0 13 0;
#X connect 16 0 15 0;
#X connect 17 0 16 0;
#X connect 19 0 18 0;
#X connect 20 0 19 0;
#X connect 22 0 21 0;
#X connect 23 0 22 0;
#X connect 24 0 10 0;
#X connect 26 0 30 0;
#X connect 27 0 30 1;
#X connect 28 0 30 2;
#X connect 29 0 30 3;
#X connect 30 0 31 0;
#X connect 30 0 45 0;
#X connect 32 0 37 0;
#X connect 33 0 53 0;
#X connect 36 0 0 0;
#X connect 37 0 9 0;
#X connect 38 0 40 0;
#X connect 39 0 24 0;
#X connect 40 0 10 0;
#X connect 41 1 14 0;
#X connect 41 2 17 0;
#X connect 41 3 20 0;
#X connect 41 4 23 0;
#X connect 42 0 44 0;
#X connect 43 0 30 0;
#X connect 44 0 55 0;
#X connect 53 0 7 0;
