#N canvas 746 177 544 251 12;
#X obj 208 93 oscparse;
#X obj 208 67 netreceive -u -b;
#X obj 367 117 print parse-output;
#X msg 208 42 listen 57120;
#X obj 208 118 list trim;
#X floatatom 208 188 5 0 0 0 - - - 0;
#X obj 208 141 route eguaus;
#X obj 207 15 loadbang;
#X obj 208 165 route slider1 slider2 toggle1;
#X floatatom 274 187 5 0 0 0 - - - 0;
#X obj 341 188 tgl 15 0 empty empty empty 17 7 0 10 #fcfcfc #000000 #000000 0 1;
#X text 10 7 Enric Guaus;
#X text 11 39 Lutheria Digital;
#X text 11 55 ENTI;
#X text 10 92 Concepts:;
#X text 11 23 07/03/2023;
#X obj 408 188 bng 15 250 50 0 empty empty empty 0 -10 0 12 #ff0400 #000000 #000000;
#X text 37 113 OSC;
#X text 36 130 App: OSC Controller;
#X connect 0 0 4 0;
#X connect 0 0 2 0;
#X connect 1 0 0 0;
#X connect 3 0 1 0;
#X connect 4 0 6 0;
#X connect 6 0 8 0;
#X connect 7 0 3 0;
#X connect 8 0 5 0;
#X connect 8 1 9 0;
#X connect 8 2 10 0;
#X connect 8 3 16 0;
