#N canvas 227 337 686 410 12;
#X obj 208 93 oscparse;
#X obj 208 67 netreceive -u -b;
#X obj 367 117 print parse-output;
#X msg 208 42 listen 57120;
#X obj 208 118 list trim;
#X floatatom 208 194 5 0 0 0 - - - 0;
#X obj 207 15 loadbang;
#X text 10 7 Enric Guaus;
#X text 11 39 Lutheria Digital;
#X text 11 55 ENTI;
#X text 10 92 Concepts:;
#X text 11 23 07/03/2023;
#X obj 432 148 bng 15 250 50 0 empty empty empty 0 -10 0 12 #ff0400 #000000 #000000;
#X text 37 113 OSC;
#X floatatom 274 194 5 0 0 0 - - - 0;
#X floatatom 316 194 5 0 0 0 - - - 0;
#X floatatom 357 194 5 0 0 0 - - - 0;
#X obj 435 172 bng 15 250 50 0 empty empty empty 0 -10 0 12 #ff0400 #000000 #000000;
#X obj 455 168 route spl frequency;
#X floatatom 455 195 5 0 0 0 - - - 0;
#X floatatom 497 195 5 0 0 0 - - - 0;
#X obj 595 172 bng 15 250 50 0 empty empty empty 0 -10 0 12 #ff0400 #000000 #000000;
#X obj 208 220 vsl 35 162 0 1000 0 0 empty empty empty 0 -9 0 12 #ffe3c6 #000000 #000000 0 1;
#X obj 274 220 vsl 35 162 0 360 0 0 empty empty empty 0 -9 0 12 #feffc6 #000000 #000000 0 1;
#X obj 316 220 vsl 35 162 -180 180 0 0 empty empty empty 0 -9 0 12 #c6ffc7 #000000 #000000 0 1;
#X obj 357 221 vsl 35 162 -180 180 0 0 empty empty empty 0 -9 0 12 #c6feff #000000 #000000 0 1;
#X obj 208 144 route light orientation audio;
#X obj 274 168 route alpha beta gamma;
#X obj 455 221 vsl 35 162 0 1 0 0 empty empty empty 0 -9 0 12 #c7c6ff #000000 #000000 0 1;
#X obj 497 221 vsl 35 162 20 2000 1 0 empty empty empty 0 -9 0 12 #c7c6ff #000000 #000000 0 1;
#X text 36 130 App: OSC Hook;
#X connect 0 0 4 0;
#X connect 0 0 2 0;
#X connect 1 0 0 0;
#X connect 3 0 1 0;
#X connect 4 0 26 0;
#X connect 5 0 22 0;
#X connect 6 0 3 0;
#X connect 14 0 23 0;
#X connect 15 0 24 0;
#X connect 16 0 25 0;
#X connect 18 0 19 0;
#X connect 18 1 20 0;
#X connect 18 2 21 0;
#X connect 19 0 28 0;
#X connect 20 0 29 0;
#X connect 26 0 5 0;
#X connect 26 1 27 0;
#X connect 26 2 18 0;
#X connect 26 3 12 0;
#X connect 27 0 14 0;
#X connect 27 1 15 0;
#X connect 27 2 16 0;
#X connect 27 3 17 0;
