#N canvas 639 62 686 295 12;
#X obj 208 93 oscparse;
#X obj 208 67 netreceive -u -b;
#X obj 367 117 print parse-output;
#X msg 208 42 listen 57120;
#X obj 207 15 loadbang;
#X text 10 7 Enric Guaus;
#X text 11 39 Lutheria Digital;
#X text 11 55 ENTI;
#X text 10 92 Concepts:;
#X obj 569 246 bng 19 250 50 0 empty empty empty 0 -10 0 12 #ff0400 #000000 #000000;
#X text 37 113 OSC;
#X text 11 23 11/03/2025;
#X text 36 130 App: SoundCool;
#X obj 208 119 fudiformat;
#X obj 208 145 fudiparse;
#X obj 208 195 route 1;
#X obj 208 170 list trim;
#X floatatom 208 245 5 0 0 0 - - - 0;
#X obj 208 220 route fader1 fader2 fader3 toggle1 push1 push2 push3;
#X floatatom 259 246 5 0 0 0 - - - 0;
#X floatatom 311 245 5 0 0 0 - - - 0;
#X obj 362 245 tgl 19 0 empty empty empty 0 -10 0 12 #fcfcfc #000000 #000000 0 1;
#X obj 414 245 bng 19 250 50 0 empty empty empty 0 -10 0 12 #fcfcfc #000000 #000000;
#X obj 465 245 bng 19 250 50 0 empty empty empty 0 -10 0 12 #fcfcfc #000000 #000000;
#X obj 517 245 bng 19 250 50 0 empty empty empty 0 -10 0 12 #fcfcfc #000000 #000000;
#X text 70 145 (Player/Effect);
#X connect 0 0 2 0;
#X connect 0 0 13 0;
#X connect 1 0 0 0;
#X connect 3 0 1 0;
#X connect 4 0 3 0;
#X connect 13 0 14 0;
#X connect 14 0 16 0;
#X connect 15 0 18 0;
#X connect 16 0 15 0;
#X connect 18 0 17 0;
#X connect 18 1 19 0;
#X connect 18 2 20 0;
#X connect 18 3 21 0;
#X connect 18 4 22 0;
#X connect 18 5 23 0;
#X connect 18 6 24 0;
#X connect 18 7 9 0;
