#N canvas 21 27 1249 797 12;
#X obj 32 699 output~;
#X obj 511 228 vsl 10 50 -2 2 0 0 empty empty empty 0 -9 0 12 #feffc6 #000000 #000000 0 0;
#X obj 493 286 *~;
#X obj 543 228 vsl 10 50 -2 2 0 0 empty empty empty 0 -9 0 12 #feffc6 #000000 #000000 0 0;
#X obj 525 286 *~;
#X obj 575 228 vsl 10 50 -2 2 0 0 empty empty empty 0 -9 0 12 #feffc6 #000000 #000000 0 0;
#X obj 557 286 *~;
#X obj 607 228 vsl 10 50 -2 2 0 0 empty empty empty 0 -9 0 12 #feffc6 #000000 #000000 0 0;
#X obj 589 286 *~;
#X obj 350 110 tgl 15 0 empty empty Forward\ mode\ on/off 18 7 0 10 #ffc7c6 #000000 #000000 0 1;
#X obj 314 178 *~;
#X obj 314 202 nn~ aigua_48k forward;
#X obj 493 202 nn~ aigua_48k encode, f 74;
#X obj 493 311 nn~ aigua_48k decode, f 69;
#X obj 34 170 adc~;
#X msg 34 131 \; pd dsp \$1;
#X obj 34 111 tgl 15 0 empty empty Audio\ on/off 18 7 0 10 #feffc6 #000000 #000000 0 1;
#X obj 34 195 s~ \$0-audio;
#X obj 314 19 r~ \$0-audio;
#X obj 33 419 hradio 15 1 0 2 empty empty Mode:\ forward/encode-decode 33 7 0 10 #feffc6 #000000 #000000 0;
#X obj 529 110 tgl 15 0 empty empty Encode-Decode\ mode\ on/off 18 7 0 10 #e3c6ff #000000 #000000 0 1;
#X obj 493 178 *~;
#X obj 493 18 r~ \$0-audio;
#X obj 33 441 == 0;
#X obj 69 442 == 1;
#X obj 33 509 tgl 15 0 empty empty forward\ mode\ on/off 18 7 0 10 #ffc7c6 #000000 #000000 0 1;
#X obj 69 468 tgl 15 0 empty empty encode-decode\ mode\ on/off 18 7 0 10 #e3c6ff #000000 #000000 0 1;
#X obj 529 86 r \$0-encdec;
#X obj 350 86 r \$0-fwd;
#X text 31 26 Test per NN~ \; Enric Guaus \; Fèlix Pastor \; www.sheepdog.cat \; 3/12/2025 \;;
#X obj 33 252 hradio 15 1 0 2 empty empty Model:\ water/voice 33 7 0 10 #feffc6 #000000 #000000 0;
#X obj 33 274 == 0;
#X obj 69 275 == 1;
#X obj 33 342 tgl 15 0 empty empty water\ model\ on/off 18 7 0 10 #c6feff #000000 #000000 0 1;
#X obj 69 301 tgl 15 0 empty empty voice\ model\ on/off 18 7 0 10 #c6ffc7 #000000 #000000 0 1;
#X obj 511 42 r \$0-water;
#X obj 511 66 tgl 15 0 empty empty water\ model\ on/off 18 7 0 10 #c6feff #000000 #000000 0 1;
#X obj 332 43 r \$0-water;
#X obj 332 67 tgl 15 0 empty empty water\ model\ on/off 18 7 0 10 #c6feff #000000 #000000 0 1;
#X obj 69 487 s \$0-encdec;
#X obj 33 528 s \$0-fwd;
#X obj 511 621 vsl 10 50 -2 2 0 0 empty empty empty 0 -9 0 12 #feffc6 #000000 #000000 0 0;
#X obj 493 679 *~;
#X obj 543 621 vsl 10 50 -2 2 0 0 empty empty empty 0 -9 0 12 #feffc6 #000000 #000000 0 0;
#X obj 525 679 *~;
#X obj 575 621 vsl 10 50 -2 2 0 0 empty empty empty 0 -9 0 12 #feffc6 #000000 #000000 0 0;
#X obj 557 679 *~;
#X obj 607 621 vsl 10 50 -2 2 0 0 empty empty empty 0 -9 0 12 #feffc6 #000000 #000000 0 0;
#X obj 589 679 *~;
#X obj 350 503 tgl 15 0 empty empty Forward\ mode\ on/off 18 7 0 10 #ffc7c6 #000000 #000000 0 1;
#X obj 314 571 *~;
#X obj 314 412 r~ \$0-audio;
#X obj 529 504 tgl 15 0 empty empty Encode-Decode\ mode\ on/off 18 7 0 10 #e3c6ff #000000 #000000 0 1;
#X obj 493 571 *~;
#X obj 493 412 r~ \$0-audio;
#X obj 529 480 r \$0-encdec;
#X obj 350 479 r \$0-fwd;
#X obj 511 460 tgl 15 0 empty empty voice\ model\ on/off 18 7 0 10 #c6ffc7 #000000 #000000 0 1;
#X obj 332 460 tgl 15 0 empty empty voice\ model\ on/off 18 7 0 10 #c6ffc7 #000000 #000000 0 1;
#X obj 332 436 r \$0-voice;
#X obj 511 436 r \$0-voice;
#X obj 493 595 nn~ veu_44k1 encode, f 103;
#X obj 493 704 nn~ veu_44k1 decode, f 98;
#X obj 332 153 &&;
#X obj 350 130 t b f;
#X obj 529 130 t b f;
#X obj 350 523 t b f;
#X obj 529 524 t b f;
#X obj 511 153 &&;
#X obj 332 546 &&;
#X obj 511 546 &&;
#X obj 33 230 loadbang;
#X msg 95 230 0;
#X obj 33 396 loadbang;
#X msg 95 396 0;
#X obj 314 595 nn~ veu_44k1 forward;
#X obj 314 359 s~ \$0-out1;
#X obj 493 359 s~ \$0-out2;
#X obj 314 751 s~ \$0-out3;
#X obj 493 752 s~ \$0-out4;
#X obj 31 606 r~ \$0-out1;
#X obj 31 651 r~ \$0-out3;
#X obj 31 674 r~ \$0-out4;
#X obj 31 628 r~ \$0-out2;
#X obj 33 361 s \$0-water;
#X obj 69 320 s \$0-voice;
#X obj 314 335 *~;
#X obj 493 335 *~;
#X obj 314 727 *~;
#X obj 493 728 *~;
#X obj 32 558 loadbang;
#X msg 32 582 level 0.7;
#X obj 888 119 tgl 19 0 empty empty empty 0 -10 0 12 #fcfcfc #000000 #000000 0 1;
#X connect 1 0 2 1;
#X connect 2 0 13 0;
#X connect 3 0 4 1;
#X connect 4 0 13 1;
#X connect 5 0 6 1;
#X connect 6 0 13 2;
#X connect 7 0 8 1;
#X connect 8 0 13 3;
#X connect 9 0 64 0;
#X connect 10 0 11 0;
#X connect 11 0 86 0;
#X connect 12 0 2 0;
#X connect 12 1 4 0;
#X connect 12 2 6 0;
#X connect 12 3 8 0;
#X connect 12 4 13 4;
#X connect 12 5 13 5;
#X connect 12 6 13 6;
#X connect 12 7 13 7;
#X connect 12 8 13 8;
#X connect 12 9 13 9;
#X connect 12 10 13 10;
#X connect 12 11 13 11;
#X connect 12 12 13 12;
#X connect 12 13 13 13;
#X connect 12 14 13 14;
#X connect 12 15 13 15;
#X connect 13 0 87 0;
#X connect 14 0 17 0;
#X connect 16 0 15 0;
#X connect 18 0 10 0;
#X connect 19 0 23 0;
#X connect 19 0 24 0;
#X connect 20 0 65 0;
#X connect 21 0 12 0;
#X connect 22 0 21 0;
#X connect 23 0 25 0;
#X connect 24 0 26 0;
#X connect 25 0 40 0;
#X connect 26 0 39 0;
#X connect 27 0 20 0;
#X connect 28 0 9 0;
#X connect 30 0 31 0;
#X connect 30 0 32 0;
#X connect 31 0 33 0;
#X connect 32 0 34 0;
#X connect 33 0 84 0;
#X connect 34 0 85 0;
#X connect 35 0 36 0;
#X connect 36 0 68 0;
#X connect 37 0 38 0;
#X connect 38 0 63 0;
#X connect 41 0 42 1;
#X connect 42 0 62 0;
#X connect 43 0 44 1;
#X connect 44 0 62 1;
#X connect 45 0 46 1;
#X connect 46 0 62 2;
#X connect 47 0 48 1;
#X connect 48 0 62 3;
#X connect 49 0 66 0;
#X connect 50 0 75 0;
#X connect 51 0 50 0;
#X connect 52 0 67 0;
#X connect 53 0 61 0;
#X connect 54 0 53 0;
#X connect 55 0 52 0;
#X connect 56 0 49 0;
#X connect 57 0 70 0;
#X connect 58 0 69 0;
#X connect 59 0 58 0;
#X connect 60 0 57 0;
#X connect 61 0 42 0;
#X connect 61 1 44 0;
#X connect 61 2 46 0;
#X connect 61 3 48 0;
#X connect 61 4 62 4;
#X connect 61 5 62 5;
#X connect 61 6 62 6;
#X connect 61 7 62 7;
#X connect 61 8 62 8;
#X connect 61 9 62 9;
#X connect 61 10 62 10;
#X connect 61 11 62 11;
#X connect 61 12 62 12;
#X connect 61 13 62 13;
#X connect 61 14 62 14;
#X connect 61 15 62 15;
#X connect 61 16 62 16;
#X connect 61 17 62 17;
#X connect 61 18 62 18;
#X connect 61 19 62 19;
#X connect 61 20 62 20;
#X connect 61 21 62 21;
#X connect 62 0 89 0;
#X connect 63 0 10 1;
#X connect 63 0 86 1;
#X connect 64 0 63 0;
#X connect 64 1 63 1;
#X connect 65 0 68 0;
#X connect 65 1 68 1;
#X connect 66 0 69 0;
#X connect 66 1 69 1;
#X connect 67 0 70 0;
#X connect 67 1 70 1;
#X connect 68 0 21 1;
#X connect 68 0 87 1;
#X connect 69 0 50 1;
#X connect 69 0 88 1;
#X connect 70 0 53 1;
#X connect 70 0 89 1;
#X connect 71 0 72 0;
#X connect 72 0 30 0;
#X connect 73 0 74 0;
#X connect 74 0 19 0;
#X connect 75 0 88 0;
#X connect 80 0 0 0;
#X connect 80 0 0 1;
#X connect 81 0 0 0;
#X connect 81 0 0 1;
#X connect 82 0 0 0;
#X connect 82 0 0 1;
#X connect 83 0 0 0;
#X connect 83 0 0 1;
#X connect 86 0 76 0;
#X connect 87 0 77 0;
#X connect 88 0 78 0;
#X connect 89 0 79 0;
#X connect 90 0 91 0;
#X connect 91 0 0 0;
