#N canvas 20 261 625 599 12;
#X obj 177 551 dac~;
#X obj 177 203 *~;
#X obj 195 64 loadbang;
#X floatatom 194 172 5 0 0 0 - - - 0;
#X text 240 92 0..100;
#X msg 195 90 10;
#X obj 195 145 / 127;
#X obj 198 120 hsl 128 15 0 127 0 0 empty empty empty -2 -8 0 10 #fcfcfc #000000 #000000 0 1;
#X obj 238 238 vu 15 120 empty empty -1 -8 0 10 #404040 #000000 1 0;
#X obj 237 208 expr 20*log($f1/0.707);
#X obj 177 505 bp~ 200 1;
#X obj 210 400 hsl 128 15 0 127 0 0 empty empty empty -2 -8 0 10 #fcfcfc #000000 #000000 0 1;
#X obj 207 420 mtof;
#X floatatom 252 476 5 0 0 0 - - - 0;
#X obj 251 425 loadbang;
#X msg 251 451 1;
#X obj 177 34 phasor~;
#X obj 181 16 hsl 128 15 250 4000 1 0 empty empty empty -2 -8 0 10 #fcfcfc #000000 #000000 0 1;
#X text 10 7 Enric Guaus;
#X text 11 39 Lutheria Digital;
#X text 11 55 ENTI;
#X text 10 92 Concepts:;
#X text 11 23 28/02/2023;
#X text 315 13 Log Slider 125...400;
#X text 233 38 Sawtooth signal;
#X text 247 507 Filter;
#X obj 14 198 session02b;
#X obj 233 551 tabwrite~ array1;
#N canvas 0 22 450 278 (subpatch) 0;
#X array array1 100 float 3;
#A 0 0 0 0 0 0 0 0 0 0 0 0 0 0 0 0 0 0 0 0 0 0 0 0 0 0 0 0 0 0 0 0 0 0 0 0 0 0 0 0 0 0 0 0 0 0 0 0 0 0 0 0 0 0 0 0 0 0 0 0 0 0 0 0 0 0 0 0 0 0 0 0 0 0 0 0 0 0 0 0 0 0 0 0 0 0 0 0 0 0 0 0 0 0 0 0 0 0 0 0 0;
#X coords 0 1 100 -1 200 140 1;
#X restore 396 431 graph;
#X text 37 115 Metronome;
#X obj 316 522 metro 500;
#X obj 316 495 tgl 19 0 empty empty empty 0 -10 0 12 #fcfcfc #000000 #000000 0 1;
#X obj 316 465 loadbang;
#X connect 1 0 10 0;
#X connect 2 0 5 0;
#X connect 3 0 1 1;
#X connect 3 0 9 0;
#X connect 5 0 7 0;
#X connect 6 0 3 0;
#X connect 7 0 6 0;
#X connect 9 0 8 0;
#X connect 10 0 0 1;
#X connect 10 0 0 0;
#X connect 10 0 27 0;
#X connect 11 0 12 0;
#X connect 12 0 10 1;
#X connect 13 0 10 2;
#X connect 14 0 15 0;
#X connect 15 0 13 0;
#X connect 16 0 1 0;
#X connect 17 0 16 0;
#X connect 30 0 27 0;
#X connect 31 0 30 0;
#X connect 32 0 31 0;
