#N canvas 775 25 382 188 12;
#X msg 204 131 \; pd dsp \$1;
#X obj 204 74 tgl 30 0 empty empty empty 17 7 0 10 #f8fc00 #000000 #000000 0 1;
#X obj 244 73 bng 30 250 50 0 empty empty empty 17 7 0 10 #fc0400 #000000 #000000;
#X msg 204 17 0;
#X text 234 102 PANIC!;
#X text 203 56 on/off;
#X text 10 98 Concepts:;
#X text 9 7 Enric Guaus;
#X text 10 39 Lutheria Digital;
#X text 10 55 ENTI;
#X text 10 23 28/02/2023;
#X text 32 117 Subpatches;
#X text 31 133 Inlet & Outlet;
#X text 31 148 DSP control;
#X connect 1 0 0 0;
#X connect 2 0 3 0;
#X connect 3 0 1 0;
#X coords 0 -1 1 1 80 80 1 200 40;
