#N canvas 638 82 576 709 12;
#X obj 176 614 dac~;
#X obj 176 266 *~;
#X obj 194 127 loadbang;
#X floatatom 193 235 5 0 0 0 - - - 0;
#X text 227 157 0..100;
#X msg 194 153 10;
#X obj 194 208 / 127;
#X obj 197 183 hsl 128 15 0 127 0 0 empty empty empty -2 -8 0 10 #fcfcfc #000000 #000000 0 1;
#X obj 237 301 vu 15 120 empty empty -1 -8 0 10 #404040 #000000 1 0;
#X obj 236 271 expr 20*log($f1/0.707);
#X obj 176 568 bp~ 200 1;
#X obj 209 463 hsl 128 15 0 127 0 0 empty empty empty -2 -8 0 10 #feffc6 #000000 #000000 0 1;
#X obj 206 483 mtof;
#X floatatom 251 539 5 0 0 0 - - - 0;
#X obj 250 488 loadbang;
#X msg 250 514 1;
#X obj 176 97 phasor~;
#X obj 180 79 hsl 128 15 250 4000 1 0 empty empty empty -2 -8 0 10 #feffc6 #000000 #000000 0 1;
#X text 10 7 Enric Guaus;
#X text 11 39 Lutheria Digital;
#X text 11 55 ENTI;
#X text 10 92 Concepts:;
#X text 11 23 28/02/2023;
#X text 37 115 Log slider;
#X text 37 131 phasor~;
#X text 38 148 mtof;
#X text 37 162 bp~;
#X text 314 76 Log Slider 125...400;
#X text 232 101 Sawtooth signal;
#X text 246 570 Filter;
#X obj 14 198 session02b;
#X obj 177 28 loadbang;
#X msg 177 54 125;
#X text 340 463 f0;
#X text 290 542 Q;
#X connect 1 0 10 0;
#X connect 2 0 5 0;
#X connect 3 0 1 1;
#X connect 3 0 9 0;
#X connect 5 0 7 0;
#X connect 6 0 3 0;
#X connect 7 0 6 0;
#X connect 9 0 8 0;
#X connect 10 0 0 1;
#X connect 10 0 0 0;
#X connect 11 0 12 0;
#X connect 12 0 10 1;
#X connect 13 0 10 2;
#X connect 14 0 15 0;
#X connect 15 0 13 0;
#X connect 16 0 1 0;
#X connect 17 0 16 0;
#X connect 31 0 32 0;
#X connect 32 0 17 0;
