#N canvas 356 93 579 477 12;
#X obj 174 11 key;
#X floatatom 174 34 3 0 0 0 - - - 0;
#X floatatom 204 34 3 0 0 0 - - - 0;
#X obj 204 11 keyup;
#X floatatom 247 35 3 0 0 0 - - - 0;
#X obj 247 11 keyname;
#X symbolatom 293 35 10 0 0 0 - - - 0;
#X obj 173 152 bng 15 250 50 0 empty empty empty 17 7 0 10 #ffc7c6 #000000 #000000;
#X obj 173 127 sel a s d f g h j k;
#X obj 189 152 bng 15 250 50 0 empty empty empty 17 7 0 10 #ffe3c6 #000000 #000000;
#X obj 205 152 bng 15 250 50 0 empty empty empty 17 7 0 10 #feffc6 #000000 #000000;
#X obj 221 152 bng 15 250 50 0 empty empty empty 17 7 0 10 #c6ffc7 #000000 #000000;
#X obj 238 152 bng 15 250 50 0 empty empty empty 17 7 0 10 #c6feff #000000 #000000;
#X obj 254 152 bng 15 250 50 0 empty empty empty 17 7 0 10 #c7c6ff #000000 #000000;
#X obj 270 152 bng 15 250 50 0 empty empty empty 17 7 0 10 #e3c6ff #000000 #000000;
#X obj 286 152 bng 15 250 50 0 empty empty empty 17 7 0 10 #dfdfdf #000000 #000000;
#X msg 173 172 0;
#X msg 202 172 2;
#X msg 232 172 4;
#X msg 261 172 5;
#X msg 291 172 7;
#X msg 320 172 9;
#X msg 349 172 11;
#X msg 379 172 12;
#X obj 422 130 sel q w;
#X msg 454 154 330;
#X msg 422 154 220;
#X floatatom 172 298 5 0 0 0 - - - 0;
#X obj 482 131 loadbang;
#X obj 172 274 expr $f2 * pow(2 \, $f1/12);
#X obj 172 321 phasor~;
#X obj 172 395 *~;
#X obj 173 427 dac~;
#X obj 190 370 line 200;
#X floatatom 422 180 5 0 0 0 - - - 0;
#X text 10 7 Enric Guaus;
#X text 11 39 Lutheria Digital;
#X text 11 55 ENTI;
#X text 10 92 Concepts:;
#X text 11 23 07/03/2023;
#X text 36 111 key;
#X text 36 127 keyup;
#X text 36 143 keyname;
#X obj 172 248 r \$0-degree;
#X obj 173 197 s \$0-degree;
#X obj 422 202 s \$0-basenote;
#X obj 344 249 r \$0-basenote;
#X obj 293 58 s \$0-keyname;
#X obj 422 105 r \$0-keyname;
#X obj 173 102 r \$0-keyname;
#X obj 180 58 s \$0-keypressed;
#X obj 190 345 r \$0-keypressed;
#X connect 0 0 1 0;
#X connect 3 0 2 0;
#X connect 4 0 50 0;
#X connect 5 0 4 0;
#X connect 5 1 6 0;
#X connect 6 0 47 0;
#X connect 7 0 16 0;
#X connect 8 0 7 0;
#X connect 8 1 9 0;
#X connect 8 2 10 0;
#X connect 8 3 11 0;
#X connect 8 4 12 0;
#X connect 8 5 13 0;
#X connect 8 6 14 0;
#X connect 8 7 15 0;
#X connect 9 0 17 0;
#X connect 10 0 18 0;
#X connect 11 0 19 0;
#X connect 12 0 20 0;
#X connect 13 0 21 0;
#X connect 14 0 22 0;
#X connect 15 0 23 0;
#X connect 16 0 44 0;
#X connect 17 0 44 0;
#X connect 18 0 44 0;
#X connect 19 0 44 0;
#X connect 20 0 44 0;
#X connect 21 0 44 0;
#X connect 22 0 44 0;
#X connect 23 0 44 0;
#X connect 24 0 26 0;
#X connect 24 1 25 0;
#X connect 25 0 34 0;
#X connect 26 0 34 0;
#X connect 27 0 30 0;
#X connect 28 0 26 0;
#X connect 29 0 27 0;
#X connect 30 0 31 0;
#X connect 31 0 32 0;
#X connect 31 0 32 1;
#X connect 33 0 31 1;
#X connect 34 0 45 0;
#X connect 43 0 29 0;
#X connect 46 0 29 1;
#X connect 48 0 24 0;
#X connect 49 0 8 0;
#X connect 51 0 33 0;
