#N canvas 591 166 663 420 12;
#X floatatom 222 24 5 0 0 0 - - - 0;
#X floatatom 263 25 5 0 0 0 - - - 0;
#X floatatom 304 25 5 0 0 0 - - - 0;
#X floatatom 345 26 5 0 0 0 - - - 0;
#X obj 222 47 pack f f f f;
#X obj 253 72 print;
#X obj 222 120 unpack f f f f;
#X floatatom 222 145 5 0 0 0 - - - 0;
#X floatatom 263 145 5 0 0 0 - - - 0;
#X floatatom 304 145 5 0 0 0 - - - 0;
#X floatatom 345 145 5 0 0 0 - - - 0;
#X obj 203 26 bng 15 250 50 0 empty empty empty 0 -10 0 12 #feffc6 #000000 #000000;
#X text 10 7 Enric Guaus;
#X text 11 39 Lutheria Digital;
#X text 11 55 ENTI;
#X text 10 92 Concepts:;
#X text 11 23 07/03/2023;
#X text 36 111 Pack/Unpack;
#X text 36 142 Send/Receive;
#X text 36 127 Line;
#X floatatom 222 202 5 0 0 0 - - - 0;
#X floatatom 263 203 5 0 0 0 - - - 0;
#X floatatom 304 203 5 0 0 0 - - - 0;
#X floatatom 345 204 5 0 0 0 - - - 0;
#X obj 222 225 pack f f f f;
#X obj 314 251 print;
#X obj 222 328 unpack f f f f;
#X floatatom 222 353 5 0 0 0 - - - 0;
#X floatatom 263 353 5 0 0 0 - - - 0;
#X floatatom 304 353 5 0 0 0 - - - 0;
#X floatatom 345 353 5 0 0 0 - - - 0;
#X obj 203 204 bng 15 250 50 0 empty empty empty 0 -10 0 12 #feffc6 #000000 #000000;
#X obj 222 251 s \$0-4values;
#X obj 222 302 r \$0-4values;
#X obj 465 250 osc~;
#X obj 465 300 s~ sinus;
#X obj 465 342 r~ sinus;
#X obj 465 368 dac~;
#X obj 531 202 loadbang;
#X obj 543 232 bng 15 250 50 0 empty empty empty 0 -10 0 12 #00ff04 #000000 #000000;
#X obj 563 232 bng 15 250 50 0 empty empty empty 0 -10 0 12 #ff0400 #000000 #000000;
#X obj 465 276 *~;
#X obj 465 202 loadbang;
#X msg 465 226 440;
#X msg 531 251 0.5;
#X msg 563 251 0;
#X msg 467 28 0;
#X msg 566 28 100;
#X obj 470 107 hsl 162 19 0 100 0 0 empty empty empty -2 -10 0 12 #c6ffc7 #000000 #000000 0 1;
#X obj 467 82 line;
#X msg 467 57 \$1 500;
#X msg 500 28 50;
#X msg 533 28 60;
#X connect 0 0 4 0;
#X connect 1 0 4 1;
#X connect 2 0 4 2;
#X connect 3 0 4 3;
#X connect 4 0 5 0;
#X connect 4 0 6 0;
#X connect 6 0 7 0;
#X connect 6 1 8 0;
#X connect 6 2 9 0;
#X connect 6 3 10 0;
#X connect 11 0 4 0;
#X connect 20 0 24 0;
#X connect 21 0 24 1;
#X connect 22 0 24 2;
#X connect 23 0 24 3;
#X connect 24 0 25 0;
#X connect 24 0 32 0;
#X connect 26 0 27 0;
#X connect 26 1 28 0;
#X connect 26 2 29 0;
#X connect 26 3 30 0;
#X connect 31 0 24 0;
#X connect 33 0 26 0;
#X connect 34 0 41 0;
#X connect 36 0 37 0;
#X connect 36 0 37 1;
#X connect 38 0 44 0;
#X connect 39 0 44 0;
#X connect 40 0 45 0;
#X connect 41 0 35 0;
#X connect 42 0 43 0;
#X connect 43 0 34 0;
#X connect 44 0 41 1;
#X connect 45 0 41 1;
#X connect 46 0 50 0;
#X connect 47 0 50 0;
#X connect 49 0 48 0;
#X connect 50 0 49 0;
#X connect 51 0 50 0;
#X connect 52 0 50 0;
