#N canvas 22 452 694 395 12;
#X obj 380 76 spigot;
#X obj 196 67 > 1;
#X floatatom 196 30 5 0 0 0 - - - 0;
#X floatatom 196 92 5 0 0 0 - - - 0;
#X obj 240 67 == 1;
#X floatatom 240 92 5 0 0 0 - - - 0;
#X obj 286 67 < 1;
#X floatatom 286 92 5 0 0 0 - - - 0;
#X msg 267 32 10;
#X msg 304 33 1;
#X obj 419 54 tgl 15 0 empty empty empty 17 7 0 10 #feffc6 #000000 #000000 0 1;
#X obj 380 33 bng 15 250 50 0 empty empty empty 17 7 0 10 #fcfcfc #000000 #000000;
#X floatatom 400 31 5 0 0 0 - - - 0;
#X obj 380 101 print;
#X floatatom 486 36 4 0 0 0 - - - 0;
#X floatatom 486 85 4 0 0 0 - - - 0;
#X floatatom 532 85 4 0 0 0 - - - 0;
#X obj 486 61 moses 1;
#X msg 532 37 10;
#X msg 566 36 0;
#X obj 195 230 select 1 2 3 4 5;
#X floatatom 195 209 5 0 0 0 - - - 0;
#X msg 161 181 0;
#X msg 195 162 1;
#X msg 229 162 2;
#X msg 263 162 3;
#X msg 297 162 4;
#X msg 329 162 5;
#X obj 195 254 bng 15 250 50 0 empty empty empty 17 7 0 10 #ffe3c6 #000000 #000000;
#X obj 304 255 bng 15 250 50 0 empty empty empty 17 7 0 10 #e3c6ff #000000 #000000;
#X obj 216 254 bng 15 250 50 0 empty empty empty 17 7 0 10 #feffc6 #000000 #000000;
#X obj 238 254 bng 15 250 50 0 empty empty empty 17 7 0 10 #c6ffc7 #000000 #000000;
#X obj 260 254 bng 15 250 50 0 empty empty empty 17 7 0 10 #c6feff #000000 #000000;
#X obj 282 254 bng 15 250 50 0 empty empty empty 17 7 0 10 #c7c6ff #000000 #000000;
#X msg 363 183 8;
#X obj 428 321 route 1 2 3;
#X msg 428 160 1 100 101;
#X msg 436 183 1 105 106;
#X obj 428 348 print a;
#X msg 465 205 2 100 101;
#X msg 473 228 2 234 345;
#X msg 505 253 3 1 2;
#X msg 550 295 4 1 2;
#X msg 514 273 3 104 105 106;
#X obj 484 347 print b;
#X obj 540 347 print c;
#X obj 595 347 print kk;
#X text 193 9 Binary operators;
#X text 378 11 Spigot;
#X text 483 13 Moses;
#X text 192 140 Select;
#X text 426 139 Route;
#X text 10 7 Enric Guaus;
#X text 11 39 Lutheria Digital;
#X text 11 55 ENTI;
#X text 10 92 Concepts:;
#X text 11 23 07/03/2023;
#X text 36 127 Spigot;
#X text 38 145 Moses;
#X text 37 161 Select;
#X text 38 176 Route;
#X text 36 111 Binary ops.;
#X connect 0 0 13 0;
#X connect 1 0 3 0;
#X connect 2 0 1 0;
#X connect 2 0 4 0;
#X connect 2 0 6 0;
#X connect 4 0 5 0;
#X connect 6 0 7 0;
#X connect 8 0 1 1;
#X connect 8 0 4 1;
#X connect 8 0 6 1;
#X connect 9 0 1 1;
#X connect 9 0 4 1;
#X connect 9 0 6 1;
#X connect 10 0 0 1;
#X connect 11 0 0 0;
#X connect 12 0 0 0;
#X connect 14 0 17 0;
#X connect 17 0 15 0;
#X connect 17 1 16 0;
#X connect 18 0 17 1;
#X connect 19 0 17 1;
#X connect 20 0 28 0;
#X connect 20 1 30 0;
#X connect 20 2 31 0;
#X connect 20 3 32 0;
#X connect 20 4 33 0;
#X connect 20 5 29 0;
#X connect 21 0 20 0;
#X connect 22 0 21 0;
#X connect 23 0 21 0;
#X connect 24 0 21 0;
#X connect 25 0 21 0;
#X connect 26 0 21 0;
#X connect 27 0 21 0;
#X connect 34 0 21 0;
#X connect 35 0 38 0;
#X connect 35 1 44 0;
#X connect 35 2 45 0;
#X connect 35 3 46 0;
#X connect 36 0 35 0;
#X connect 37 0 35 0;
#X connect 39 0 35 0;
#X connect 40 0 35 0;
#X connect 41 0 35 0;
#X connect 42 0 35 0;
#X connect 43 0 35 0;
