#N canvas 831 474 303 216 12;
#X msg 150 56 open ./violin.aiff;
#X msg 160 80 1;
#X obj 150 149 readsf~ 2;
#X obj 150 174 dac~;
#X obj 235 174 print;
#X msg 161 123 0;
#X obj 150 30 t b b;
#X obj 150 9 bng 15 250 50 0 empty empty empty 17 7 0 10 #00ff04 #000000 #000000;
#X obj 164 104 bng 15 250 50 0 empty empty empty 17 7 0 10 #ff0400 #000000 #000000;
#X text 10 7 Enric Guaus;
#X text 11 39 Lutheria Digital;
#X text 11 55 ENTI;
#X text 11 23 02/03/2023;
#X text 10 92 Concepts:;
#X text 37 115 Trigger;
#X obj 210 174 bng 19 250 50 0 empty empty empty 0 -10 0 12 #fcfcfc #000000 #000000;
#X connect 0 0 2 0;
#X connect 1 0 2 0;
#X connect 2 0 3 0;
#X connect 2 1 3 1;
#X connect 2 2 4 0;
#X connect 2 2 15 0;
#X connect 5 0 2 0;
#X connect 6 0 1 0;
#X connect 6 1 0 0;
#X connect 7 0 6 0;
#X connect 8 0 5 0;
