#N canvas 321 300 570 302 12;
#X obj 186 54 soundfiler;
#N canvas 0 22 450 278 (subpatch) 0;
#X array array1 1.98751e+06 float 2;
#X coords 0 1 1.98751e+06 -1 200 140 1;
#X restore 185 116 graph;
#X msg 186 28 read -resize ./violin.aiff array1;
#X obj 263 79 print;
#X floatatom 186 79 10 0 0 0 - - - 0;
#X obj 434 51 tabplay~ array1;
#X msg 452 28 stop;
#X obj 434 8 bng 15 250 50 0 empty empty empty 17 7 0 10 #00ff04 #000000 #000000;
#X obj 434 76 dac~;
#X obj 474 151 vu 15 120 empty empty -1 -8 0 10 #404040 #000000 1 0;
#X obj 471 76 env~;
#X floatatom 472 100 5 0 0 0 - - - 0;
#X obj 472 124 - 96;
#X text 10 7 Enric Guaus;
#X text 11 39 Lutheria Digital;
#X text 11 55 ENTI;
#X text 11 23 02/03/2023;
#X text 10 92 Concepts:;
#X text 37 115 Play from an array;
#X text 36 133 env~;
#X obj 452 8 bng 15 250 50 0 empty empty empty 0 -10 0 12 #ff0400 #000000 #000000;
#X obj 186 8 bng 15 250 50 0 empty empty empty 0 -10 0 12 #faff00 #000000 #000000;
#X obj 40 185 tabread4~;
#X text 14 164 Homework:;
#X connect 0 0 4 0;
#X connect 0 1 3 0;
#X connect 2 0 0 0;
#X connect 5 0 8 0;
#X connect 5 0 8 1;
#X connect 5 0 10 0;
#X connect 6 0 5 0;
#X connect 7 0 5 0;
#X connect 10 0 11 0;
#X connect 11 0 12 0;
#X connect 12 0 9 0;
#X connect 20 0 6 0;
#X connect 21 0 2 0;
