#N canvas 320 246 845 449 12;
#X obj 141 141 soundfiler;
#N canvas 0 22 450 278 (subpatch) 0;
#X array array1 1.98751e+06 float 2;
#X coords 0 1 1.98751e+06 -1 200 140 1;
#X restore 313 128 graph;
#X msg 139 56 read -resize ./violin.aiff array1;
#X floatatom 114 203 10 0 0 0 - - -;
#X obj 227 200 print;
#X connect 0 0 3 0;
#X connect 0 1 4 0;
#X connect 2 0 0 0;
