#N canvas 331 345 449 231 12;
#X msg 270 15 open ./violin.aiff;
#X msg 279 40 1;
#X obj 270 87 readsf~ 2;
#X obj 270 113 dac~;
#X obj 353 114 print;
#X msg 287 63 0;
#X text 10 7 Enric Guaus;
#X text 11 39 Lutheria Digital;
#X text 11 55 ENTI;
#X text 10 92 Concepts:;
#X text 11 23 02/03/2023;
#X text 37 115 Open & Read a soundfile;
#X obj 330 113 bng 19 250 50 0 empty empty empty 0 -10 0 12 #fcfcfc #000000 #000000;
#X text 37 134 press "open" always before 1;
#X connect 0 0 2 0;
#X connect 1 0 2 0;
#X connect 2 0 3 0;
#X connect 2 1 3 1;
#X connect 2 2 4 0;
#X connect 2 2 12 0;
#X connect 5 0 2 0;
