#N canvas 32 497 443 297 12;
#X obj 178 52 soundfiler;
#N canvas 0 22 450 278 (subpatch) 0;
#X array array1 1.98751e+06 float 2;
#X coords 0 1 1.98751e+06 -1 200 140 1;
#X restore 177 114 graph;
#X msg 178 28 read -resize ./violin.aiff array1;
#X floatatom 178 77 10 0 0 0 - - - 0;
#X obj 255 77 print;
#X text 10 7 Enric Guaus;
#X text 11 39 Lutheria Digital;
#X text 11 55 ENTI;
#X text 11 23 02/03/2023;
#X text 10 92 Concepts:;
#X text 35 115 Soundfiler;
#X text 36 130 Write to an array;
#X connect 0 0 3 0;
#X connect 0 1 4 0;
#X connect 2 0 0 0;
