#N canvas 20 420 450 300 12;
#X msg 93 72 open ./violin.aiff;
#X msg 230 110 1;
#X obj 96 174 readsf~ 2;
#X obj 105 263 dac~;
#X obj 226 216 print;
#X msg 230 135 0;
#X connect 0 0 2 0;
#X connect 1 0 2 0;
#X connect 2 0 3 0;
#X connect 2 1 3 1;
#X connect 2 2 4 0;
#X connect 5 0 2 0;
